<svg width="92" height="120" viewBox="0 0 92 120" fill="none" xmlns="http://www.w3.org/2000/svg">
<g clip-path="url(#clip0_30361_34036)">
<path d="M37.1988 44.6028C43.0487 47.2736 49.0834 49.6907 54.9068 52.3081C63.0412 55.9404 66.2368 61.1619 65.4709 70.0691C64.1504 85.1726 62.7243 100.276 61.2717 115.38C60.9383 116.959 60.4654 118.506 59.8588 120C59.8588 109.677 59.8588 100.129 59.8588 90.6211C59.8588 84.9456 59.8588 79.2701 60.0172 73.5946C60.1757 68.2529 57.9836 63.8728 53.5203 61.469C46.8121 57.8367 39.9983 54.4181 33.1448 51.0662C26.6743 47.8879 20.217 44.2423 13.4956 41.6382C11.8318 40.9839 8.74178 39.181 6.89307 39.3814C4.76704 39.595 5.08397 42.3994 4.96512 44.4292C4.72743 48.3286 4.50294 52.2147 4.31807 56.1141C4.21243 58.3709 4.1332 60.6411 4.06717 62.8979C4.02756 66.143 3.96153 69.4415 4.05397 72.7266C4.05397 75.3974 3.96153 78.3753 5.28204 80.8325C6.60255 83.2897 12.492 85.226 13.8786 87.5897C11.7393 86.3477 4.48974 83.9974 2.64102 79.9244C1.71666 77.8812 0 51.0929 0 45.5777C0.0660255 36.6171 0 31.8763 2.3373 30.8881C3.94833 30.2338 6.76102 31.3155 8.75499 32.09C10.2604 32.6776 11.7393 33.3319 13.2315 33.9596C14.1955 34.3736 15.001 34.6674 15.5556 34.881" fill="white"/>
<path d="M50.4039 27.2424C56.2538 29.9133 62.2885 32.3304 68.112 34.9478C76.2463 38.5801 79.4419 43.8015 78.676 52.7087C77.3555 67.8122 75.9294 82.9157 74.4768 98.0192C74.1434 99.599 73.6705 101.145 73.0639 102.64C73.0639 92.317 73.0639 82.7688 73.0639 73.2607C73.0639 67.5852 73.0639 61.9097 73.2223 56.2342C73.3808 50.8926 71.1887 46.5124 66.7254 44.1087C60.0172 40.4764 53.2034 37.0577 46.3499 33.7058C39.8794 30.5275 33.4221 26.8819 26.7007 24.2778C25.0369 23.6235 21.9469 21.8207 20.0982 22.021C17.9722 22.2346 18.2891 25.039 18.1702 27.0688C17.9325 30.9682 17.7081 34.8543 17.5232 38.7537C17.4175 41.0105 17.3383 43.2807 17.2723 45.5376C17.1798 48.8227 17.1534 52.1211 17.2723 55.4062C17.2723 58.0771 17.1798 61.055 18.5004 63.5122C19.8209 65.9693 25.7103 67.9057 27.0969 70.2694C24.9577 69.0274 17.7081 66.6771 15.8461 62.6041C14.9218 60.5609 13.2051 33.7726 13.2051 28.2573C13.2711 19.2967 13.2051 14.556 15.5424 13.5678C17.1534 12.9135 19.9661 13.9952 21.9601 14.7697C23.4655 15.3573 24.9445 16.0116 26.4366 16.6393C27.4006 17.0533 28.2061 17.347 28.7607 17.5607" fill="white"/>
<path d="M63.609 13.8884C69.4589 16.5593 75.4936 18.9763 81.3171 21.5938C89.4514 25.2261 92.6471 30.4475 91.8812 39.3547C90.5607 54.4582 89.1345 69.5617 87.6819 84.6652C87.3485 86.245 86.8756 87.7914 86.269 89.2857C86.269 78.963 86.269 69.4148 86.269 59.9067C86.269 54.2312 86.269 48.5557 86.4275 42.8802C86.5859 37.5386 84.3939 33.1584 79.9305 30.7547C73.2223 27.1224 66.4085 23.7037 59.5551 20.3518C53.0846 17.1735 46.6273 13.5279 39.9059 10.9238C38.242 10.2695 35.152 8.46667 33.3033 8.66698C31.1773 8.88064 31.4942 11.685 31.3754 13.7148C31.1377 17.6142 30.9132 21.5003 30.7283 25.3997C30.6227 27.6565 30.5434 29.9267 30.4774 32.1836C30.385 35.4687 30.3586 38.7671 30.4114 42.0522C30.4114 44.7231 30.3189 47.701 31.6395 50.1582C32.96 52.6153 38.8494 54.5517 40.236 56.9154C38.0968 55.6734 30.8472 53.3231 28.9852 49.2501C28.0609 47.2069 26.3442 20.4186 26.3442 14.9033C26.4102 5.94274 26.3442 1.20203 28.6815 0.213828C30.2925 -0.440523 33.1052 0.641159 35.0992 1.4157C36.6046 2.00328 38.0835 2.65763 39.5757 3.28527C40.5397 3.69925 41.3452 3.99304 41.8998 4.20671" fill="white"/>
</g>
<defs>
<clipPath id="clip0_30361_34036">
<rect width="92" height="120" fill="white"/>
</clipPath>
</defs>
</svg>
